<svg xmlns="http://www.w3.org/2000/svg" xmlns:xlink="http://www.w3.org/1999/xlink" viewBox="0 0 86.97 82.43"><defs><style>.cls-1{isolation:isolate;}.cls-2{opacity:0.1;}.cls-3{fill:#2c50ab;}.cls-4{fill:#e1708b;}.cls-5{fill:#ed9ca5;}.cls-6{fill:#ffd1d1;}.cls-7{opacity:0.72;mix-blend-mode:overlay;}.cls-8{fill:url(#Áåçûìÿííûé_ãðàäèåíò_19);}.cls-9{fill:url(#Áåçûìÿííûé_ãðàäèåíò_19-3);}.cls-10{fill:#f0adb1;}.cls-11{fill:#e87d96;}.cls-12{fill:#f4af9f;}.cls-13{fill:#f2809b;}.cls-14{fill:url(#Áåçûìÿííûé_ãðàäèåíò_28);}.cls-15{fill:url(#Áåçûìÿííûé_ãðàäèåíò_28-3);}.cls-16{fill:url(#Áåçûìÿííûé_ãðàäèåíò_28-5);}.cls-17{fill:url(#Áåçûìÿííûé_ãðàäèåíò_28-6);}.cls-18{fill:#877f9f;}.cls-19{fill:#e0e4f1;}.cls-20{fill:#fff;}.cls-21{fill:#473f65;}.cls-22{fill:#d3d7e6;}.cls-23{fill:#82c1ed;}</style><linearGradient id="Áåçûìÿííûé_ãðàäèåíò_19" x1="39.5" y1="-1.79" x2="40.11" y2="49.6" gradientUnits="userSpaceOnUse"><stop offset="0" stop-color="#d6d6d6"/><stop offset="1" stop-color="gray"/></linearGradient><linearGradient id="Áåçûìÿííûé_ãðàäèåíò_19-3" x1="34.18" y1="-1.72" x2="34.79" y2="49.67" xlink:href="#Áåçûìÿííûé_ãðàäèåíò_19"/><linearGradient id="Áåçûìÿííûé_ãðàäèåíò_28" x1="38.27" y1="27.37" x2="38.27" y2="65.38" gradientUnits="userSpaceOnUse"><stop offset="0" stop-color="#f2f2f2"/><stop offset="1" stop-color="#adadad"/></linearGradient><linearGradient id="Áåçûìÿííûé_ãðàäèåíò_28-3" x1="37.45" y1="27.37" x2="37.45" y2="65.38" xlink:href="#Áåçûìÿííûé_ãðàäèåíò_28"/><linearGradient id="Áåçûìÿííûé_ãðàäèåíò_28-5" x1="50.56" y1="27.37" x2="50.56" y2="65.38" xlink:href="#Áåçûìÿííûé_ãðàäèåíò_28"/><linearGradient id="Áåçûìÿííûé_ãðàäèåíò_28-6" x1="50.57" y1="27.37" x2="50.57" y2="65.38" xlink:href="#Áåçûìÿííûé_ãðàäèåíò_28"/></defs><title>offer8</title><g class="cls-1"><g id="Layer_2" data-name="Layer 2"><g id="Layer_1-2" data-name="Layer 1"><g class="cls-2"><path class="cls-3" d="M49.21,23a14.31,14.31,0,0,1-3.28-.91c-2.85-1.16-5.47-2.83-8.3-4C24.24,12.5,8,19.07,2.18,32.29A24.67,24.67,0,0,0,.84,36.12c-2,7.59-.27,15.56,2.91,22.56C18.09,90.25,76.17,80,84.88,55.07c3.66-10.47,3.38-25-8-30.44A29.1,29.1,0,0,0,64.18,22.1a59.51,59.51,0,0,0-8.33.72A22.11,22.11,0,0,1,49.21,23Z"/></g><path class="cls-4" d="M56.47,55.23"/><path class="cls-5" d="M60.26,56c0-.75-1.15-1.67-2.41-2.59l-5.7-5.75c.38-.14.63-.31.7-.5.28-.83-5.34-5.48-9.38-8.25l0,0h0A21.51,21.51,0,0,0,40.26,37C37.38,35.81,29,40.25,29,40.25l-3.15-1.76-5.74,13,5.14,2.22a5,5,0,0,0,1.85,1.85s18.46,12.62,23.12,11v0C53.87,65.93,60.26,58.29,60.26,56Z"/><path class="cls-6" d="M43.47,38.94l0,0h0A21.51,21.51,0,0,0,40.26,37C37.38,35.81,29,40.25,29,40.25l-3.15-1.76-.94,2.13,3.75,2.13S35.94,39,38.71,39a7.19,7.19,0,0,1,4.82,1.95l1-1.24Z"/><g class="cls-7"><path class="cls-8" d="M60.26,56c0-.75-1.15-1.67-2.41-2.59l-5.7-5.75c.38-.14.63-.31.7-.5.28-.83-5.34-5.48-9.38-8.25l0,0h0A21.51,21.51,0,0,0,40.26,37C37.38,35.81,29,40.25,29,40.25l-3.15-1.76-5.74,13,5.14,2.22a5,5,0,0,0,1.85,1.85s18.46,12.62,23.12,11v0C53.87,65.93,60.26,58.29,60.26,56Z"/><path class="cls-8" d="M60.26,56c0-.75-1.15-1.67-2.41-2.59l-5.7-5.75c.38-.14.63-.31.7-.5.28-.83-5.34-5.48-9.38-8.25l0,0h0A21.51,21.51,0,0,0,40.26,37C37.38,35.81,29,40.25,29,40.25l-3.15-1.76-5.74,13,5.14,2.22a5,5,0,0,0,1.85,1.85s18.46,12.62,23.12,11v0C53.87,65.93,60.26,58.29,60.26,56Z"/><path class="cls-9" d="M43.47,38.94l0,0h0A21.51,21.51,0,0,0,40.26,37C37.38,35.81,29,40.25,29,40.25l-3.15-1.76-.94,2.13,3.75,2.13S35.94,39,38.71,39a7.19,7.19,0,0,1,4.82,1.95l1-1.24Z"/></g><path class="cls-10" d="M29.13,58.54c-.75,3.08,7.37,11.83,11.22,10.58,2.42-.79,7.5-5.26,7.08-7.54-.31-1.74-2.22-1.22-2.22-1.22s1.05-2.7-2.08-2.57c0,0,.8-3.23-2.47-3A2,2,0,0,0,38,52.52C36.07,52.93,29.62,56.55,29.13,58.54Z"/><path class="cls-11" d="M45.64,65.19a5.48,5.48,0,0,0,.12-2.07c-.31-1.74-2.22-1.22-2.22-1.22s1.05-2.7-2.08-2.57c0,0,.8-3.23-2.47-3A2,2,0,0,0,36.31,54a22.72,22.72,0,0,0-3.93,1.31l-.27.18c-1.52,1-2.77,2.17-3,3-.75,3.08,7.37,11.83,11.22,10.58A15.27,15.27,0,0,0,45.64,65.19Z"/><path class="cls-12" d="M61.22,38.49l-3.15,1.76S49.64,35.81,46.77,37s-13,9.08-12.59,10.19,6.95,1.71,11.07-3c0,0,2.41,2.78,4.86,2.45l10,8.84a4.7,4.7,0,0,0,1.75-1.8L67,51.46Z"/><path class="cls-13" d="M45.24,44.19a5.37,5.37,0,0,0,4.86,2.45l10,8.84a4.69,4.69,0,0,0,1.76-1.8L67,51.46l-4.7-10.62-5.67,2.47s-7.22-5.19-9.17-4.72S34.18,47.2,34.18,47.2l.67.49C36.67,48.36,41.81,48.12,45.24,44.19Z"/><g class="cls-7"><path class="cls-14" d="M29.13,58.54c-.75,3.08,7.37,11.83,11.22,10.58,2.42-.79,7.5-5.26,7.08-7.54-.31-1.74-2.22-1.22-2.22-1.22s1.05-2.7-2.08-2.57c0,0,.8-3.23-2.47-3A2,2,0,0,0,38,52.52C36.07,52.93,29.62,56.55,29.13,58.54Z"/><path class="cls-14" d="M29.13,58.54c-.75,3.08,7.37,11.83,11.22,10.58,2.42-.79,7.5-5.26,7.08-7.54-.31-1.74-2.22-1.22-2.22-1.22s1.05-2.7-2.08-2.57c0,0,.8-3.23-2.47-3A2,2,0,0,0,38,52.52C36.07,52.93,29.62,56.55,29.13,58.54Z"/><path class="cls-15" d="M45.64,65.19a5.48,5.48,0,0,0,.12-2.07c-.31-1.74-2.22-1.22-2.22-1.22s1.05-2.7-2.08-2.57c0,0,.8-3.23-2.47-3A2,2,0,0,0,36.31,54a22.72,22.72,0,0,0-3.93,1.31l-.27.18c-1.52,1-2.77,2.17-3,3-.75,3.08,7.37,11.83,11.22,10.58A15.27,15.27,0,0,0,45.64,65.19Z"/><path class="cls-15" d="M45.64,65.19a5.48,5.48,0,0,0,.12-2.07c-.31-1.74-2.22-1.22-2.22-1.22s1.05-2.7-2.08-2.57c0,0,.8-3.23-2.47-3A2,2,0,0,0,36.31,54a22.72,22.72,0,0,0-3.93,1.31l-.27.18c-1.52,1-2.77,2.17-3,3-.75,3.08,7.37,11.83,11.22,10.58A15.27,15.27,0,0,0,45.64,65.19Z"/><path class="cls-16" d="M61.22,38.49l-3.15,1.76S49.64,35.81,46.77,37s-13,9.08-12.59,10.19,6.95,1.71,11.07-3c0,0,2.41,2.78,4.86,2.45l10,8.84a4.7,4.7,0,0,0,1.75-1.8L67,51.46Z"/><path class="cls-17" d="M45.24,44.19a5.37,5.37,0,0,0,4.86,2.45l10,8.84a4.69,4.69,0,0,0,1.76-1.8L67,51.46l-4.7-10.62-5.67,2.47s-7.22-5.19-9.17-4.72S34.18,47.2,34.18,47.2l.67.49C36.67,48.36,41.81,48.12,45.24,44.19Z"/><path class="cls-17" d="M45.24,44.19a5.37,5.37,0,0,0,4.86,2.45l10,8.84a4.69,4.69,0,0,0,1.76-1.8L67,51.46l-4.7-10.62-5.67,2.47s-7.22-5.19-9.17-4.72S34.18,47.2,34.18,47.2l.67.49C36.67,48.36,41.81,48.12,45.24,44.19Z"/></g><path class="cls-18" d="M36.16,0H55.6s5.57,6.27,3.86,10.76-10.57,7.6-5.57,16.65H34.64s-4.18-5.06-2.28-9.81,8.23-5.13,8.23-10.07S36.16,0,36.16,0Z"/><path class="cls-19" d="M55,4.3H42a.37.37,0,1,1,0-.75H55a.37.37,0,0,1,0,.75Z"/><path class="cls-19" d="M56.27,7.48h-13a.37.37,0,0,1,0-.75h13a.37.37,0,0,1,0,.75Z"/><path class="cls-19" d="M56.37,10.45h-13a.37.37,0,1,1,0-.75h13a.37.37,0,0,1,0,.75Z"/><path class="cls-19" d="M54.54,13.61h-13a.37.37,0,1,1,0-.75h13a.37.37,0,0,1,0,.75Z"/><path class="cls-19" d="M51.44,17h-13a.37.37,0,0,1,0-.75h13a.37.37,0,0,1,0,.75Z"/><path class="cls-19" d="M49.48,20.17h-13a.37.37,0,0,1,0-.75h13a.37.37,0,0,1,0,.75Z"/><rect class="cls-20" x="63.39" y="32.8" width="10.65" height="20.65" transform="translate(-11.7 32.43) rotate(-24.54)"/><path class="cls-21" d="M76.93,24.66,64.37,30.34,75.65,55.05l10.56-4.82C88.21,40.54,86.59,29.31,76.93,24.66Z"/><rect class="cls-20" x="13.34" y="32.8" width="10.65" height="20.65" transform="translate(17.74 90.1) rotate(-155.46)"/><path class="cls-21" d="M23,30.34,8.33,23.64C2.07,29.48-1.77,38.45.82,50.07l10.92,5Z"/><circle class="cls-22" cx="17.28" cy="50.74" r="1.5"/><circle class="cls-22" cx="70" cy="50.74" r="1.5"/><g class="cls-2"><path class="cls-3" d="M65,76.72a11.72,11.72,0,0,0-3.26.73,2.75,2.75,0,0,0-1.63,2.69A2.58,2.58,0,0,0,61.64,82a6.22,6.22,0,0,0,2.4.46,24.94,24.94,0,0,0,15.38-4.85,5.5,5.5,0,0,0,2.44-3,3.39,3.39,0,0,0-1.35-3.33,4.44,4.44,0,0,0-5,.15c-1.15.7-2.12,1.66-3.21,2.45a19.08,19.08,0,0,1-7,2.87Z"/></g><g class="cls-2"><path class="cls-3" d="M14.79,16.48a21.87,21.87,0,0,1,2.32-1.59,8.84,8.84,0,0,1,3.49-1.12,4.62,4.62,0,0,0,1.68-.3,1.83,1.83,0,0,0,1-1.6c0-1.92-2.3-2.18-3.74-2.06a11.78,11.78,0,0,0-7,3,3.61,3.61,0,0,0-1,3,2,2,0,0,0,.83,1.43C13.26,17.8,14.12,17,14.79,16.48Z"/></g><circle class="cls-20" cx="48.44" cy="25.59" r="7.34"/><circle class="cls-23" cx="48.44" cy="25.59" r="6.19"/><path class="cls-20" d="M46.27,25.45a.76.76,0,0,0-1.07,0l-.29.29a.76.76,0,0,0,0,1.07L47,28.95a.76.76,0,0,0,1.07,0l4.4-4.29a.76.76,0,0,0,0-1.07l-.29-.29a.76.76,0,0,0-1.07,0l-3.57,3.46Z"/></g></g></g></svg>